<?xml version="1.0" encoding="UTF-8"?>
<svg width="292px" height="73px" viewBox="0 0 292 73" version="1.1" xmlns="http://www.w3.org/2000/svg" xmlns:xlink="http://www.w3.org/1999/xlink">
    <!-- Generator: Sketch 51.1 (57501) - http://www.bohemiancoding.com/sketch -->
    <title>Option2</title>
    <desc>Created with Sketch.</desc>
    <defs></defs>
    <g id="Page-1" stroke="none" stroke-width="1" fill="none" fill-rule="evenodd">
        <g id="Desktop-Copy" transform="translate(-348.000000, -458.000000)">
            <g id="Option2" transform="translate(348.000000, 458.000000)">
                <g id="symbol2">
                    <circle id="Oval-Copy-6" fill="#2EA3F2" cx="6" cy="36" r="6"></circle>
                    <circle id="Oval-Copy-7" fill="#2FA1F2" cx="19" cy="51" r="5"></circle>
                    <circle id="Oval-Copy-8" fill="#2EA3F2" cx="34" cy="36" r="4"></circle>
                    <circle id="Oval-Copy-9" fill="#2EA3F2" cx="34" cy="7" r="7"></circle>
                    <circle id="Oval-Copy-10" fill="#2EA3F2" cx="62" cy="36" r="8"></circle>
                    <circle id="Oval-Copy-11" fill="#2EA3F2" cx="34" cy="64" r="9"></circle>
                    <path d="M35.5677189,5.43228112 L6,35" id="Line-Copy-4" stroke="#2EA3F2" stroke-width="4" stroke-linecap="square"></path>
                    <path d="M17.509996,36.490004 L5,49" id="Line-Copy-5" stroke="#2EA3F2" stroke-width="4" stroke-linecap="square" transform="translate(11.500000, 42.500000) scale(1, -1) translate(-11.500000, -42.500000) "></path>
                    <path d="M33.509996,36.490004 L21,49" id="Line-Copy-6" stroke="#2EA3F2" stroke-width="3" stroke-linecap="square" transform="translate(27.500000, 42.500000) scale(-1, -1) translate(-27.500000, -42.500000) "></path>
                    <path d="M63.5677189,7.43228112 L34,37" id="Line-Copy-7" stroke="#2EA3F2" stroke-width="5" stroke-linecap="square" transform="translate(49.000000, 22.000000) scale(-1, 1) translate(-49.000000, -22.000000) "></path>
                    <path d="M62.5677189,36.4322811 L33,66" id="Line-Copy-8" stroke="#2EA3F2" stroke-width="6" stroke-linecap="square"></path>
                    <path d="M34,45 C38.9705627,45 43,40.9705627 43,36 C43,31.0294373 38.9705627,27 34,27 C29.0294373,27 25,31.0294373 25,36" id="Oval-2-Copy" stroke="#FFAC01" stroke-width="5"></path>
                </g>
                <path d="M127.515625,45.0970379 L127.515625,47.65625 L121.703125,47.65625 L110.46875,35.59375 L110.46875,35.6628244 L104,28.7259393 L104,26 L109.796875,26 L111.548968,27.8767191 L111.5,27.9223828 L127.515625,45.0970379 Z M127.515625,38.0749352 L121,31.0877829 L121,26 L127.515625,26 L127.515625,38.0749352 Z M110.46875,42.6849271 L110.46875,47.65625 L104,47.65625 L104,35.748042 L110.46875,42.6849271 Z" id="Combined-Shape-Copy" fill="#FFAC01"></path>
                <text id="O-Copy" font-family="GillSans-Bold, Gill Sans" font-size="32" font-weight="bold" fill="#FFAC01">
                    <tspan x="75" y="48">O</tspan>
                </text>
                <g id="Group-Copy" transform="translate(131.000000, 26.000000)" fill="#FFAC01">
                    <rect id="Rectangle-2" x="0" y="0" width="18" height="5"></rect>
                    <rect id="Rectangle-2-Copy" x="0" y="9" width="18" height="5"></rect>
                    <rect id="Rectangle-2-Copy-2" x="0" y="18" width="18" height="4"></rect>
                </g>
                <path d="M176.265625,37.515625 C176.265625,39.7343861 175.861983,41.5156183 175.054688,42.859375 C174.247392,44.2031317 173.29688,45.2916625 172.203125,46.125 C170.651034,47.3437561 168.479181,47.953125 165.6875,47.953125 L154,47.953125 L154,26.296875 L163,26.296875 C164.354173,26.296875 165.513016,26.3671868 166.476562,26.5078125 C167.440109,26.6484382 168.307288,26.8463529 169.078125,27.1015625 C169.848962,27.3567721 170.505206,27.6432276 171.046875,27.9609375 C171.588544,28.2786474 172.072915,28.6197898 172.5,28.984375 C173.239587,29.5885447 173.888018,30.3020792 174.445312,31.125 C175.002607,31.9479208 175.445311,32.9010363 175.773438,33.984375 C176.101564,35.0677137 176.265625,36.2447853 176.265625,37.515625 Z M169.625,37.234375 C169.625,35.4739495 169.289066,34.1015674 168.617188,33.1171875 C167.945309,32.1328076 167.138026,31.47396 166.195312,31.140625 C165.252599,30.80729 164.291672,30.640625 163.3125,30.640625 L154.009101,30.640625 L154.009101,35.9695911 L160.53125,35.9695911 L160.53125,43.46875 L163.3125,43.46875 C165.020842,43.46875 166.499994,43.0625041 167.75,42.25 C169.000006,41.4374959 169.625,39.7656377 169.625,37.234375 Z M186.859375,47.953125 L180.328125,47.953125 L180.328125,26.296875 L186.859375,26.296875 L186.859375,47.953125 Z M212.75,46.421875 C212.281248,46.5989592 211.88021,46.7447911 211.546875,46.859375 C211.21354,46.9739589 210.893231,47.0781245 210.585938,47.171875 C210.278644,47.2656255 209.833336,47.3854159 209.25,47.53125 C208.260412,47.7604178 207.273442,47.9348952 206.289062,48.0546875 C205.304683,48.1744798 204.26563,48.234375 203.171875,48.234375 C200.973947,48.234375 198.942718,47.8333373 197.078125,47.03125 C195.213532,46.2291627 193.72136,44.9843834 192.601562,43.296875 C191.481765,41.6093666 190.921875,39.5364706 190.921875,37.078125 C190.921875,35.4947838 191.210935,33.9401118 191.789062,32.4140625 C192.36719,30.8880132 193.249994,29.6666712 194.4375,28.75 C195.416672,27.9895795 196.408849,27.4088562 197.414062,27.0078125 C198.419276,26.6067688 199.401037,26.3385423 200.359375,26.203125 C201.317713,26.0677077 202.374994,26 203.53125,26 C205.43751,26 207.01041,26.1432277 208.25,26.4296875 C209.48959,26.7161473 210.848951,27.0937477 212.328125,27.5625 L212.328125,32.6875 C211.348953,32.1145805 210.312505,31.6354186 209.21875,31.25 C208.124995,30.8645814 206.760425,30.671875 205.125,30.671875 C203.239574,30.671875 201.731776,31.0286423 200.601562,31.7421875 C199.471349,32.4557327 198.684898,33.3072867 198.242188,34.296875 C197.799477,35.2864633 197.578125,36.244787 197.578125,37.171875 C197.578125,38.2656305 197.833331,39.2734329 198.34375,40.1953125 C198.854169,41.1171921 199.624995,41.856768 200.65625,42.4140625 C201.687505,42.971357 202.932284,43.25 204.390625,43.25 C205.223962,43.25 206.10937,43.1406261 207.046875,42.921875 L207.046875,40.375 L207.109375,36.015625 L212.75,36.015625 L212.75,46.421875 Z M224.453125,47.953125 L217.921875,47.953125 L217.921875,26.296875 L224.453125,26.296875 L224.453125,47.953125 Z M246.375,47.953125 L229.921875,47.953125 L229.921875,26.296875 L236.453125,26.296875 L236.453125,42.765625 L246.375,42.765625 L246.375,47.953125 Z M266.8125,31.5625 L258.875,31.5625 L258.875,47.953125 L252.359375,47.953125 L252.359375,31.5625 L244.421875,31.5625 L244.421875,26.296875 L266.8125,26.296875 L266.8125,31.5625 Z M291.65625,47.953125 L284.96875,47.953125 L283.203125,43.5625 L273.796875,43.5625 L272,47.953125 L265.3125,47.953125 L274.890625,26.296875 L282.109375,26.296875 L291.65625,47.953125 Z M283.204849,43.5644395 L278.53125,31.890625 L273.804075,43.5644395 L283.204849,43.5644395 Z" id="DIGILTA-Copy-3" fill="#2EA3F2"></path>
            </g>
        </g>
    </g>
</svg>